<?xml version="1.0" encoding="UTF-8"?>
<svg width="104px" height="157px" viewBox="0 0 104 157" version="1.1" xmlns="http://www.w3.org/2000/svg" xmlns:xlink="http://www.w3.org/1999/xlink">
    <!-- Generator: Sketch 51.3 (57544) - http://www.bohemiancoding.com/sketch -->
    <title>bird</title>
    <desc>Created with Sketch.</desc>
    <defs>
        <linearGradient x1="100%" y1="0%" x2="23.5394246%" y2="100%" id="linearGradient-1">
            <stop stop-color="#00EAE5" offset="0%"></stop>
            <stop stop-color="#02B5E4" offset="100%"></stop>
        </linearGradient>
        <linearGradient x1="100%" y1="0%" x2="-2.6188151%" y2="100%" id="linearGradient-2">
            <stop stop-color="#4DF4F0" offset="0%"></stop>
            <stop stop-color="#1AA8CD" offset="100%"></stop>
        </linearGradient>
    </defs>
    <g id="Web-app" stroke="none" stroke-width="1" fill="none" fill-rule="evenodd">
        <g id="Desktop" transform="translate(-442.000000, -321.000000)">
            <g id="bird" transform="translate(442.000000, 321.000000)">
                <path d="M0,51.3807635 L0,57.2245665 L0,126.941847 C0,143.542084 13.5052537,157 30.1638806,157 L51.7384478,157 L51.7384478,21.3226108 L30.1638806,21.3226108 C29.2418507,21.3226108 28.3314627,21.3705616 27.4311642,21.4517685 L27.4218507,21.4509951 C19.0614925,21.4509951 11.940597,19.0882611 7.33122388,13.1825862 C2.9321791,7.54605419 0,0.658935961 0,0.658935961 L0,51.3807635 Z" id="left-side" fill="url(#linearGradient-1)"></path>
                <path d="M28.8010695,84.9872709 C16.0331633,84.9872709 5.68224922,74.6368719 5.68224922,61.869601 C5.68224922,49.10233 16.0331633,38.751931 28.8010695,38.751931 C41.5689758,38.751931 51.9191164,49.10233 51.9191164,61.869601 C51.9191164,74.6368719 41.5689758,84.9872709 28.8010695,84.9872709 Z" id="left-eye-outer" fill="#FFFFFF"></path>
                <path d="M24.8895641,61.869601 C24.8895641,65.0397635 22.3194312,67.6097685 19.1491109,67.6097685 C15.9787906,67.6097685 13.4086578,65.0397635 13.4086578,61.869601 C13.4086578,58.6994384 15.9787906,56.1294335 19.1491109,56.1294335 C22.3194312,56.1294335 24.8895641,58.6994384 24.8895641,61.869601" id="left-eye-inner" fill="#444444"></path>
                <path d="M51.9191164,95.9973793 L41.5859914,85.6655419 C41.5859914,85.6655419 43.3084367,80.4992365 51.9191164,80.4992365 L51.9191164,95.9973793 Z" id="left-beak" fill="#F5C268"></path>
                <path d="M73.4197508,157 C90.0208133,157 103.478626,143.542857 103.478626,126.942621 L103.478626,57.2253399 L103.478626,51.3807635 L103.478626,0.658935961 C103.478626,0.658935961 100.556579,7.54682759 96.1727352,13.1825862 C91.5792898,19.0890345 84.4830008,21.4509951 76.1569461,21.4509951 L76.1430242,21.4517685 C75.2450633,21.3705616 74.3378211,21.3226108 73.4197508,21.3226108 L51.9189617,21.3226108 L51.9189617,157" id="right-side" fill="url(#linearGradient-2)"></path>
                <path d="M51.9191164,61.869601 C51.9191164,74.6368719 62.269257,84.9872709 75.0379367,84.9872709 C87.8050695,84.9872709 98.1559836,74.6368719 98.1559836,61.869601 C98.1559836,49.10233 87.8050695,38.751931 75.0379367,38.751931 C62.269257,38.751931 51.9191164,49.10233 51.9191164,61.869601" id="right-eye-outer" fill="#FFFFFF"></path>
                <path d="M60.6772906,61.869601 C60.6772906,65.0397635 63.2474234,67.6097685 66.4177437,67.6097685 C69.5880641,67.6097685 72.1581969,65.0397635 72.1581969,61.869601 C72.1581969,58.6994384 69.5880641,56.1294335 66.4177437,56.1294335 C63.2474234,56.1294335 60.6772906,58.6994384 60.6772906,61.869601" id="right-eye-inner" fill="#444444"></path>
                <path d="M51.9191164,95.9973793 L62.2522414,85.6655419 C62.2522414,85.6655419 60.5297961,80.4992365 51.9191164,80.4992365 L51.9191164,95.9973793 Z" id="right-beak" fill="#D89144"></path>
            </g>
        </g>
    </g>
</svg>