<?xml version="1.0" encoding="UTF-8"?>
<svg width="648px" height="184px" viewBox="0 0 648 184" version="1.1" xmlns="http://www.w3.org/2000/svg" xmlns:xlink="http://www.w3.org/1999/xlink">
    <!-- Generator: Sketch 53.2 (72643) - https://sketchapp.com -->
    <title>Untitled 5</title>
    <desc>Created with Sketch.</desc>
    <defs>
        <linearGradient x1="50%" y1="0%" x2="50%" y2="100%" id="linearGradient-1">
            <stop stop-color="#FFF500" offset="0%"></stop>
            <stop stop-color="#FFCA17" offset="100%"></stop>
        </linearGradient>
        <linearGradient x1="50%" y1="0%" x2="50%" y2="100%" id="linearGradient-2">
            <stop stop-color="#FFA730" offset="0%"></stop>
            <stop stop-color="#FF6A3C" offset="100%"></stop>
        </linearGradient>
        <linearGradient x1="50%" y1="0%" x2="50%" y2="100%" id="linearGradient-3">
            <stop stop-color="#FF6513" offset="0%"></stop>
            <stop stop-color="#F43FF9" offset="100%"></stop>
        </linearGradient>
        <linearGradient x1="50%" y1="94.0073103%" x2="50%" y2="9.92773479%" id="linearGradient-4">
            <stop stop-color="#438EFF" offset="0%"></stop>
            <stop stop-color="#6ACCFF" offset="100%"></stop>
        </linearGradient>
        <linearGradient x1="50%" y1="0%" x2="50%" y2="100%" id="linearGradient-5">
            <stop stop-color="#3FFB55" offset="0%"></stop>
            <stop stop-color="#BBF93F" offset="100%"></stop>
        </linearGradient>
        <path d="M10.2,118 L10.2,34 L24.6,34 L24.6,104.2 L65.4,104.2 L65.4,118 L10.2,118 Z M101.88,119.44 C84.72,119.44 73.8,107.56 73.8,87.4 C73.8,67.36 84.72,55.24 101.88,55.24 C119.16,55.24 130.08,67.36 130.08,87.4 C130.08,107.56 119.16,119.44 101.88,119.44 Z M101.88,106 C110.64,106 116.04,99.04 116.04,87.4 C116.04,75.76 110.64,68.56 101.88,68.56 C93.36,68.56 87.84,75.76 87.84,87.4 C87.84,99.04 93.36,106 101.88,106 Z M145.08,118 L145.08,56.68 L159.12,56.68 L159.12,63.04 C161.52,58 165.6,55.24 171.72,55.24 C176.28,55.24 180,56.8 183.12,59.44 L181.08,72.28 C178.56,70.48 175.32,69.04 170.64,69.04 C165.24,69.04 159.12,72.04 159.12,83.68 L159.12,118 L145.08,118 Z M200.64,48.28 C195.96,48.28 192.24,44.56 192.24,39.88 C192.24,35.32 195.96,31.6 200.64,31.6 C205.32,31.6 208.92,35.32 208.92,39.88 C208.92,44.56 205.32,48.28 200.64,48.28 Z M193.56,118 L193.56,56.68 L207.6,56.68 L207.6,118 L193.56,118 Z M279.48,118 L264.12,118 L246.6,84.16 L239.76,90.88 L239.76,118 L225.72,118 L225.72,37.96 L239.76,31.36 L239.76,74.44 L257.04,56.68 L274.08,56.68 L256.68,74.08 L279.48,118 Z M316.8,119.44 C299.4,119.44 288.48,107.44 288.48,87.28 C288.48,67.24 299.64,55.24 316.8,55.24 C331.56,55.24 343.56,64.36 343.56,84.04 C343.56,86.56 343.44,89.92 343.08,92.68 L302.4,92.68 C302.88,101.68 309.48,107.08 316.8,107.08 C322.2,107.08 326.52,105.04 329.76,100.72 L338.64,109.84 C333.84,115.6 326.64,119.44 316.8,119.44 Z M302.52,81.04 L329.64,81.04 C329.04,71.68 323.16,67.6 316.8,67.6 C309.24,67.6 303.24,71.44 302.52,81.04 Z M383.28,119.44 C365.88,119.44 354.96,107.44 354.96,87.28 C354.96,67.24 366.12,55.24 383.28,55.24 C398.04,55.24 410.04,64.36 410.04,84.04 C410.04,86.56 409.92,89.92 409.56,92.68 L368.88,92.68 C369.36,101.68 375.96,107.08 383.28,107.08 C388.68,107.08 393,105.04 396.24,100.72 L405.12,109.84 C400.32,115.6 393.12,119.44 383.28,119.44 Z M369,81.04 L396.12,81.04 C395.52,71.68 389.64,67.6 383.28,67.6 C375.72,67.6 369.72,71.44 369,81.04 Z M441.48,119.44 C431.4,119.44 427.2,113.44 427.2,103.72 L427.2,68.92 L418.08,68.92 L418.08,56.68 L427.2,56.68 L427.2,38.08 L441.24,31.36 L441.24,56.68 L455.4,56.68 L455.4,68.92 L441.24,68.92 L441.24,100.96 C441.24,104.44 442.68,106.84 446.4,106.84 C449.52,106.84 452.76,105.88 456,104.08 L454.32,116.68 C450.84,118.48 446.52,119.44 441.48,119.44 Z" id="path-6"></path>
    </defs>
    <g id="Page-1" stroke="none" stroke-width="1" fill="none" fill-rule="evenodd">
        <g id="lorikeet" fill-rule="nonzero">
            <g id="Group-Copy-3" opacity="0.9">
                <path d="M70.9505703,72 C59.6501901,89.4863302 54,109.054731 54,130.705204 C54,156.721398 59.6501901,184.819664 70.9505703,215 C82.9835234,184.984413 89,157.081074 89,131.289984 C89,109.414407 82.9835234,89.6510796 70.9505703,72 Z" id="original_Path-2_67779265" fill="url(#linearGradient-1)" style="mix-blend-mode: overlay;" transform="translate(71.500000, 143.500000) rotate(-90.000000) translate(-71.500000, -143.500000) "></path>
                <path d="M75.9505703,48 C64.6501901,65.4863302 59,85.0547314 59,106.705204 C59,132.721398 64.6501901,160.819664 75.9505703,191 C87.9835234,160.984413 94,133.081074 94,107.289984 C94,85.4144074 87.9835234,65.6510796 75.9505703,48 Z" id="original_Path-2_67779265-Copy" fill="url(#linearGradient-2)" transform="translate(76.500000, 119.500000) rotate(-70.000000) translate(-76.500000, -119.500000) "></path>
                <path d="M86.9505703,28 C75.6501901,45.4863302 70,65.0547314 70,86.7052036 C70,112.721398 75.6501901,140.819664 86.9505703,171 C98.9835234,140.984413 105,113.081074 105,87.2899835 C105,65.4144074 98.9835234,45.6510796 86.9505703,28 Z" id="original_Path-2_67779265-Copy-2" fill="url(#linearGradient-3)" transform="translate(87.500000, 99.500000) rotate(-51.000000) translate(-87.500000, -99.500000) "></path>
                <path d="M104.95057,12 C93.6501901,29.4863302 88,49.0547314 88,70.7052036 C88,96.7213981 93.6501901,124.819664 104.95057,155 C116.983523,124.984413 123,97.0810741 123,71.2899835 C123,49.4144074 116.983523,29.6510796 104.95057,12 Z" id="original_Path-2_67779265-Copy-3" fill="url(#linearGradient-4)" transform="translate(105.500000, 83.500000) rotate(-32.000000) translate(-105.500000, -83.500000) "></path>
                <path d="M124.95057,3 C113.65019,20.4863302 108,40.0547314 108,61.7052036 C108,87.7213981 113.65019,115.819664 124.95057,146 C136.983523,115.984413 143,88.0810741 143,62.2899835 C143,40.4144074 136.983523,20.6510796 124.95057,3 Z" id="original_Path-2_67779265-Copy-4" fill="url(#linearGradient-5)" transform="translate(125.500000, 74.500000) rotate(-14.000000) translate(-125.500000, -74.500000) "></path>
            </g>
            <g id="Lorikeet" transform="translate(187.000000, 32.000000)">
                <g>
                    <use fill="#000000" xlink:href="#path-6"></use>
                    <use fill="#1D1D1D" xlink:href="#path-6"></use>
                </g>
            </g>
        </g>
    </g>
</svg>