<?xml version="1.0" encoding="UTF-8"?>
<svg width="650px" height="156px" viewBox="0 0 650 156" version="1.1" xmlns="http://www.w3.org/2000/svg" xmlns:xlink="http://www.w3.org/1999/xlink">
    <!-- Generator: Sketch 53.2 (72643) - https://sketchapp.com -->
    <title>lorikeet-dark</title>
    <desc>Created with Sketch.</desc>
    <defs>
        <linearGradient x1="50%" y1="0%" x2="50%" y2="100%" id="linearGradient-1">
            <stop stop-color="#FFF500" offset="0%"></stop>
            <stop stop-color="#FFCA17" offset="100%"></stop>
        </linearGradient>
        <linearGradient x1="50%" y1="0%" x2="50%" y2="100%" id="linearGradient-2">
            <stop stop-color="#FFF500" offset="0%"></stop>
            <stop stop-color="#FFCA17" offset="100%"></stop>
        </linearGradient>
        <linearGradient x1="50%" y1="0%" x2="50%" y2="100%" id="linearGradient-3">
            <stop stop-color="#FFA730" offset="0%"></stop>
            <stop stop-color="#FF6A3C" offset="100%"></stop>
        </linearGradient>
        <linearGradient x1="50%" y1="0%" x2="50%" y2="100%" id="linearGradient-4">
            <stop stop-color="#FFA730" offset="0%"></stop>
            <stop stop-color="#FF6A3C" offset="100%"></stop>
        </linearGradient>
        <linearGradient x1="50%" y1="0%" x2="50%" y2="100%" id="linearGradient-5">
            <stop stop-color="#FF6513" offset="0%"></stop>
            <stop stop-color="#F43FF9" offset="100%"></stop>
        </linearGradient>
        <linearGradient x1="50%" y1="0%" x2="50%" y2="100%" id="linearGradient-6">
            <stop stop-color="#FF6513" offset="0%"></stop>
            <stop stop-color="#F43FF9" offset="100%"></stop>
        </linearGradient>
        <linearGradient x1="50%" y1="94.0073103%" x2="50%" y2="9.92773479%" id="linearGradient-7">
            <stop stop-color="#438EFF" offset="0%"></stop>
            <stop stop-color="#6ACCFF" offset="100%"></stop>
        </linearGradient>
        <linearGradient x1="50%" y1="94.0073103%" x2="50%" y2="9.92773479%" id="linearGradient-8">
            <stop stop-color="#438EFF" offset="0%"></stop>
            <stop stop-color="#6ACCFF" offset="100%"></stop>
        </linearGradient>
        <linearGradient x1="50%" y1="0%" x2="50%" y2="100%" id="linearGradient-9">
            <stop stop-color="#3FFB55" offset="0%"></stop>
            <stop stop-color="#BBF93F" offset="100%"></stop>
        </linearGradient>
        <linearGradient x1="50%" y1="0%" x2="50%" y2="100%" id="linearGradient-10">
            <stop stop-color="#3FFB55" offset="0%"></stop>
            <stop stop-color="#BBF93F" offset="100%"></stop>
        </linearGradient>
        <path d="M205.2,151 L205.2,67 L219.6,67 L219.6,137.2 L260.4,137.2 L260.4,151 L205.2,151 Z M296.88,152.44 C279.72,152.44 268.8,140.56 268.8,120.4 C268.8,100.36 279.72,88.24 296.88,88.24 C314.16,88.24 325.08,100.36 325.08,120.4 C325.08,140.56 314.16,152.44 296.88,152.44 Z M296.88,139 C305.64,139 311.04,132.04 311.04,120.4 C311.04,108.76 305.64,101.56 296.88,101.56 C288.36,101.56 282.84,108.76 282.84,120.4 C282.84,132.04 288.36,139 296.88,139 Z M340.08,151 L340.08,89.68 L354.12,89.68 L354.12,96.04 C356.52,91 360.6,88.24 366.72,88.24 C371.28,88.24 375,89.8 378.12,92.44 L376.08,105.28 C373.56,103.48 370.32,102.04 365.64,102.04 C360.24,102.04 354.12,105.04 354.12,116.68 L354.12,151 L340.08,151 Z M395.64,81.28 C390.96,81.28 387.24,77.56 387.24,72.88 C387.24,68.32 390.96,64.6 395.64,64.6 C400.32,64.6 403.92,68.32 403.92,72.88 C403.92,77.56 400.32,81.28 395.64,81.28 Z M388.56,151 L388.56,89.68 L402.6,89.68 L402.6,151 L388.56,151 Z M474.48,151 L459.12,151 L441.6,117.16 L434.76,123.88 L434.76,151 L420.72,151 L420.72,70.96 L434.76,64.36 L434.76,107.44 L452.04,89.68 L469.08,89.68 L451.68,107.08 L474.48,151 Z M511.8,152.44 C494.4,152.44 483.48,140.44 483.48,120.28 C483.48,100.24 494.64,88.24 511.8,88.24 C526.56,88.24 538.56,97.36 538.56,117.04 C538.56,119.56 538.44,122.92 538.08,125.68 L497.4,125.68 C497.88,134.68 504.48,140.08 511.8,140.08 C517.2,140.08 521.52,138.04 524.76,133.72 L533.64,142.84 C528.84,148.6 521.64,152.44 511.8,152.44 Z M497.52,114.04 L524.64,114.04 C524.04,104.68 518.16,100.6 511.8,100.6 C504.24,100.6 498.24,104.44 497.52,114.04 Z M578.28,152.44 C560.88,152.44 549.96,140.44 549.96,120.28 C549.96,100.24 561.12,88.24 578.28,88.24 C593.04,88.24 605.04,97.36 605.04,117.04 C605.04,119.56 604.92,122.92 604.56,125.68 L563.88,125.68 C564.36,134.68 570.96,140.08 578.28,140.08 C583.68,140.08 588,138.04 591.24,133.72 L600.12,142.84 C595.32,148.6 588.12,152.44 578.28,152.44 Z M564,114.04 L591.12,114.04 C590.52,104.68 584.64,100.6 578.28,100.6 C570.72,100.6 564.72,104.44 564,114.04 Z M636.48,152.44 C626.4,152.44 622.2,146.44 622.2,136.72 L622.2,101.92 L613.08,101.92 L613.08,89.68 L622.2,89.68 L622.2,71.08 L636.24,64.36 L636.24,89.68 L650.4,89.68 L650.4,101.92 L636.24,101.92 L636.24,133.96 C636.24,137.44 637.68,139.84 641.4,139.84 C644.52,139.84 647.76,138.88 651,137.08 L649.32,149.68 C645.84,151.48 641.52,152.44 636.48,152.44 Z" id="path-11"></path>
    </defs>
    <g id="Page-1" stroke="none" stroke-width="1" fill="none" fill-rule="evenodd">
        <g id="lorikeet-dark" transform="translate(-1.000000, -5.000000)">
            <g id="Group-2">
                <g id="Group" opacity="0.949999988">
                    <g id="original_Path-2_67779265" style="mix-blend-mode: screen;" transform="translate(72.175528, 143.627132) rotate(-90.000000) translate(-72.175528, -143.627132) translate(54.175528, 72.127132)">
                        <g id="path-2-link" fill="#000000" fill-rule="nonzero">
                            <path d="M17.6056103,0.3300866 C6.3815433,17.7297715 0.7695098,37.201211 0.7695098,58.744404 C0.7695098,84.631687 6.3815433,112.590725 17.6056103,142.621517 C29.5573031,112.754658 35.5331495,84.989581 35.5331495,59.326286 C35.5331495,37.559104 29.5573031,17.8937046 17.6056103,0.3300866 Z" id="path-2"></path>
                        </g>
                        <g id="path-2-link" fill="url(#linearGradient-2)">
                            <path d="M17.6056103,0.3300866 C6.3815433,17.7297715 0.7695098,37.201211 0.7695098,58.744404 C0.7695098,84.631687 6.3815433,112.590725 17.6056103,142.621517 C29.5573031,112.754658 35.5331495,84.989581 35.5331495,59.326286 C35.5331495,37.559104 29.5573031,17.8937046 17.6056103,0.3300866 Z" id="path-2"></path>
                        </g>
                    </g>
                    <g id="original_Path-2_67779265-Copy" style="mix-blend-mode: screen;" transform="translate(76.318366, 119.025668) rotate(-70.000000) translate(-76.318366, -119.025668) translate(58.818366, 47.025668)">
                        <g id="path-5-link" fill="#000000" fill-rule="nonzero">
                            <path d="M16.8817927,0.9968189 C5.6577257,18.3965038 0.0456922,37.867943 0.0456922,59.411136 C0.0456922,85.29842 5.6577257,113.257457 16.8817927,143.288249 C28.8334855,113.42139 34.8093319,85.656314 34.8093319,59.993019 C34.8093319,38.2258368 28.8334855,18.5604368 16.8817927,0.9968189 Z" id="path-5"></path>
                        </g>
                        <g id="path-5-link" fill="url(#linearGradient-4)">
                            <path d="M16.8817927,0.9968189 C5.6577257,18.3965038 0.0456922,37.867943 0.0456922,59.411136 C0.0456922,85.29842 5.6577257,113.257457 16.8817927,143.288249 C28.8334855,113.42139 34.8093319,85.656314 34.8093319,59.993019 C34.8093319,38.2258368 28.8334855,18.5604368 16.8817927,0.9968189 Z" id="path-5"></path>
                        </g>
                    </g>
                    <g id="original_Path-2_67779265-Copy-2" style="mix-blend-mode: screen;" transform="translate(87.825364, 98.538575) rotate(-51.000000) translate(-87.825364, -98.538575) translate(69.825364, 27.038575)">
                        <g id="path-8-link" fill="#000000" fill-rule="nonzero">
                            <path d="M17.4073998,0.5566373 C6.1833328,17.9563222 0.5712993,37.4277614 0.5712993,58.9709548 C0.5712993,84.858238 6.1833328,112.817276 17.4073998,142.848068 C29.3590926,112.981209 35.334939,85.216132 35.334939,59.5528371 C35.334939,37.7856552 29.3590926,18.1202552 17.4073998,0.5566373 Z" id="path-8"></path>
                        </g>
                        <g id="path-8-link" fill="url(#linearGradient-6)">
                            <path d="M17.4073998,0.5566373 C6.1833328,17.9563222 0.5712993,37.4277614 0.5712993,58.9709548 C0.5712993,84.858238 6.1833328,112.817276 17.4073998,142.848068 C29.3590926,112.981209 35.334939,85.216132 35.334939,59.5528371 C35.334939,37.7856552 29.3590926,18.1202552 17.4073998,0.5566373 Z" id="path-8"></path>
                        </g>
                    </g>
                    <g id="original_Path-2_67779265-Copy-3" style="mix-blend-mode: screen;" transform="translate(105.422810, 83.012434) rotate(-32.000000) translate(-105.422810, -83.012434) translate(87.922810, 11.012434)">
                        <g id="path-11-link" fill="#000000" fill-rule="nonzero">
                            <path d="M16.937368,0.9950983 C5.7133011,18.3947832 0.1012677,37.8662224 0.1012677,59.4094158 C0.1012677,85.2966992 5.7133011,113.255737 16.937368,143.286529 C28.889061,113.41967 34.864907,85.6545929 34.864907,59.9912981 C34.864907,38.2241161 28.889061,18.5587162 16.937368,0.9950983 Z" id="path-11"></path>
                        </g>
                        <g id="path-11-link" fill="url(#linearGradient-8)">
                            <path d="M16.937368,0.9950983 C5.7133011,18.3947832 0.1012677,37.8662224 0.1012677,59.4094158 C0.1012677,85.2966992 5.7133011,113.255737 16.937368,143.286529 C28.889061,113.41967 34.864907,85.6545929 34.864907,59.9912981 C34.864907,38.2241161 28.889061,18.5587162 16.937368,0.9950983 Z" id="path-11"></path>
                        </g>
                    </g>
                    <g id="original_Path-2_67779265-Copy-4" style="mix-blend-mode: screen;" transform="translate(126.010836, 74.475085) rotate(-14.000000) translate(-126.010836, -74.475085) translate(108.010836, 2.975085)">
                        <g id="path-14-link" fill="#000000" fill-rule="nonzero">
                            <path d="M17.35824,0.29770325 C6.134173,17.6973881 0.52214,37.1688273 0.52214,58.7120207 C0.52214,84.5993041 6.134173,112.558342 17.35824,142.589134 C29.309933,112.722275 35.285779,84.9571979 35.285779,59.293903 C35.285779,37.5267211 29.309933,17.8613212 17.35824,0.29770325 Z" id="path-14"></path>
                        </g>
                        <g id="path-14-link" fill="url(#linearGradient-10)">
                            <path d="M17.35824,0.29770325 C6.134173,17.6973881 0.52214,37.1688273 0.52214,58.7120207 C0.52214,84.5993041 6.134173,112.558342 17.35824,142.589134 C29.309933,112.722275 35.285779,84.9571979 35.285779,59.293903 C35.285779,37.5267211 29.309933,17.8613212 17.35824,0.29770325 Z" id="path-14"></path>
                        </g>
                    </g>
                </g>
                <g id="Group-Copy" opacity="0.949999988" transform="translate(1.000000, 1.000000)" fill-rule="nonzero">
                    <path d="M70.6056105,71.3300871 C59.3815435,88.729772 53.76951,108.201212 53.76951,129.744405 C53.76951,155.631688 59.3815435,183.590726 70.6056105,213.621518 C82.5573033,183.754659 88.5331497,155.989582 88.5331497,130.326287 C88.5331497,108.559105 82.5573033,88.8937051 70.6056105,71.3300871 Z" id="original_Path-2_67779265" fill="url(#linearGradient-2)" transform="translate(71.151330, 142.475802) rotate(-90.000000) translate(-71.151330, -142.475802) "></path>
                    <path d="M74.8817926,46.9968189 C63.6577256,64.3965038 58.0456921,83.867943 58.0456921,105.411136 C58.0456921,131.29842 63.6577256,159.257457 74.8817926,189.288249 C86.8334854,159.42139 92.8093318,131.656314 92.8093318,105.993019 C92.8093318,84.2258368 86.8334854,64.5604368 74.8817926,46.9968189 Z" id="original_Path-2_67779265-Copy" fill="url(#linearGradient-4)" transform="translate(75.427512, 118.142534) rotate(-70.000000) translate(-75.427512, -118.142534) "></path>
                    <path d="M86.4073995,26.5566373 C75.1833325,43.9563222 69.571299,63.4277614 69.571299,84.9709548 C69.571299,110.858238 75.1833325,138.817276 86.4073995,168.848068 C98.3590923,138.981209 104.334939,111.216132 104.334939,85.5528371 C104.334939,63.7856552 98.3590923,44.1202552 86.4073995,26.5566373 Z" id="original_Path-2_67779265-Copy-2" fill="url(#linearGradient-6)" transform="translate(86.953119, 97.702353) rotate(-51.000000) translate(-86.953119, -97.702353) "></path>
                    <path d="M103.937368,10.9950982 C92.7133009,28.3947831 87.1012675,47.8662223 87.1012675,69.4094157 C87.1012675,95.2966991 92.7133009,123.255737 103.937368,153.286529 C115.889061,123.41967 121.864907,95.6545928 121.864907,69.991298 C121.864907,48.224116 115.889061,28.5587161 103.937368,10.9950982 Z" id="original_Path-2_67779265-Copy-3" fill="url(#linearGradient-8)" transform="translate(104.483087, 82.140814) rotate(-32.000000) translate(-104.483087, -82.140814) "></path>
                    <path d="M124.35824,2.29770335 C113.134173,19.6973882 107.52214,39.1688274 107.52214,60.7120208 C107.52214,86.5993042 113.134173,114.558342 124.35824,144.589134 C136.309933,114.722275 142.285779,86.957198 142.285779,61.2939031 C142.285779,39.5267212 136.309933,19.8613213 124.35824,2.29770335 Z" id="original_Path-2_67779265-Copy-4" fill="url(#linearGradient-10)" transform="translate(124.903960, 73.443419) rotate(-14.000000) translate(-124.903960, -73.443419) "></path>
                </g>
                <g id="Group-Copy-2" opacity="0.263671875" transform="translate(1.000000, 1.000000)" fill-rule="nonzero">
                    <path d="M70.6056105,71.3300871 C59.3815435,88.729772 53.76951,108.201212 53.76951,129.744405 C53.76951,155.631688 59.3815435,183.590726 70.6056105,213.621518 C82.5573033,183.754659 88.5331497,155.989582 88.5331497,130.326287 C88.5331497,108.559105 82.5573033,88.8937051 70.6056105,71.3300871 Z" id="original_Path-2_67779265" fill="url(#linearGradient-2)" opacity="0.949999988" style="mix-blend-mode: hard-light;" transform="translate(71.151330, 142.475802) rotate(-90.000000) translate(-71.151330, -142.475802) "></path>
                    <path d="M74.8817926,46.9968189 C63.6577256,64.3965038 58.0456921,83.867943 58.0456921,105.411136 C58.0456921,131.29842 63.6577256,159.257457 74.8817926,189.288249 C86.8334854,159.42139 92.8093318,131.656314 92.8093318,105.993019 C92.8093318,84.2258368 86.8334854,64.5604368 74.8817926,46.9968189 Z" id="original_Path-2_67779265-Copy" fill="url(#linearGradient-4)" opacity="0.949999988" style="mix-blend-mode: hard-light;" transform="translate(75.427512, 118.142534) rotate(-70.000000) translate(-75.427512, -118.142534) "></path>
                    <path d="M86.4073995,26.5566373 C75.1833325,43.9563222 69.571299,63.4277614 69.571299,84.9709548 C69.571299,110.858238 75.1833325,138.817276 86.4073995,168.848068 C98.3590923,138.981209 104.334939,111.216132 104.334939,85.5528371 C104.334939,63.7856552 98.3590923,44.1202552 86.4073995,26.5566373 Z" id="original_Path-2_67779265-Copy-2" fill="url(#linearGradient-6)" opacity="0.949999988" style="mix-blend-mode: hard-light;" transform="translate(86.953119, 97.702353) rotate(-51.000000) translate(-86.953119, -97.702353) "></path>
                    <path d="M103.937368,10.9950982 C92.7133009,28.3947831 87.1012675,47.8662223 87.1012675,69.4094157 C87.1012675,95.2966991 92.7133009,123.255737 103.937368,153.286529 C115.889061,123.41967 121.864907,95.6545928 121.864907,69.991298 C121.864907,48.224116 115.889061,28.5587161 103.937368,10.9950982 Z" id="original_Path-2_67779265-Copy-3" fill="url(#linearGradient-8)" opacity="0.949999988" style="mix-blend-mode: hard-light;" transform="translate(104.483087, 82.140814) rotate(-32.000000) translate(-104.483087, -82.140814) "></path>
                    <path d="M124.35824,2.29770335 C113.134173,19.6973882 107.52214,39.1688274 107.52214,60.7120208 C107.52214,86.5993042 113.134173,114.558342 124.35824,144.589134 C136.309933,114.722275 142.285779,86.957198 142.285779,61.2939031 C142.285779,39.5267212 136.309933,19.8613213 124.35824,2.29770335 Z" id="original_Path-2_67779265-Copy-4" fill="url(#linearGradient-10)" opacity="0.949999988" style="mix-blend-mode: hard-light;" transform="translate(124.903960, 73.443419) rotate(-14.000000) translate(-124.903960, -73.443419) "></path>
                </g>
            </g>
            <g id="Lorikeet" fill-rule="nonzero">
                <use fill="#000000" xlink:href="#path-11"></use>
                <use fill="#FFFFFF" xlink:href="#path-11"></use>
            </g>
        </g>
    </g>
</svg>